# xmcd
#
# Track frame offsets:
#	150
#	10359
#	20028
#	30608
#	47960
#	59443
#	75741
#	87875
#	100928
#	114164
#	124573
#	137029
#	147679
#	157659
#
# Disc length: 2292 seconds
#
# Revision: 1
# Processed by: cddbd v1.5.2PL0 Copyright (c) Steve Scherf et al.
# Submitted via: audiograbber 1.83.01
#
DISCID=b508f20e
DTITLE=Various Artist - Forever Gold Country Rock
DYEAR=2007
DGENRE=Country
TTITLE0=Mickey Gilley - #1 Rock 'n' Roll C&W Boogie Blues Man
TTITLE1=Mel McDaniel - Let it Roll (Let it Rock)
TTITLE2=Lynn Anderson - Heartbreak Hotel
TTITLE3=Exile - Super Love
TTITLE4=Juice Newton - Crazy Little Thing Called Love
TTITLE5=T.G. Sheppard - Party Time
TTITLE6=Johnny Lee - Hey Bartender
TTITLE7=T. Graham Brown - Brilliant Conversationalist
TTITLE8=Janie Fricke - He's A Heartache
TTITLE9=Waylon Jennings - White Lightning
TTITLE10=Johnny Paycheck - Song and Dance Man
TTITLE11=Bobby Bare - Vampira
TTITLE12=Buck Owens - Rythm N Booze
TTITLE13=T. Graham Brown - Hell and High Water
EXTD=YEAR: 2007
EXTT0=
EXTT1=
EXTT2=
EXTT3=
EXTT4=
EXTT5=
EXTT6=
EXTT7=
EXTT8=
EXTT9=
EXTT10=
EXTT11=
EXTT12=
EXTT13=
PLAYORDER=
